<svg width="1042" height="395" viewBox="0 0 1042 395" fill="none" xmlns="http://www.w3.org/2000/svg">
<path d="M200 44.0386C484.137 39.9707 481.404 359 774 359" stroke="url(#paint0_linear)" stroke-width="4" stroke-linecap="round"/>
<path d="M774 44.0386C489.863 39.9707 492.596 359 200 359" stroke="url(#paint1_linear)" stroke-width="10" stroke-linecap="round"/>
<path d="M21.1086 357.123V354.735H12.2023V357.958H16.802L16.7873 358.295C16.6994 360.917 14.6926 362.689 11.8068 362.689C8.29121 362.689 6.06465 359.892 6.06465 355.307C6.06465 350.81 8.15938 348.158 11.6457 348.158C14.0334 348.158 15.8352 349.477 16.4797 351.688H20.9182C20.2883 347.411 16.5676 344.496 11.6311 344.496C5.42012 344.496 1.55293 348.598 1.55293 355.365C1.55293 362.235 5.42012 366.366 11.7336 366.366C17.6223 366.366 21.1086 362.88 21.1086 357.123ZM30.2791 366.337C35.0252 366.337 38.0574 363.305 38.0574 358.134C38.0574 353.036 34.9813 349.96 30.2791 349.96C25.577 349.96 22.5008 353.051 22.5008 358.134C22.5008 363.29 25.533 366.337 30.2791 366.337ZM30.2791 363.07C28.1697 363.07 26.8367 361.298 26.8367 358.148C26.8367 355.028 28.199 353.227 30.2791 353.227C32.3592 353.227 33.7068 355.028 33.7068 358.148C33.7068 361.298 32.3738 363.07 30.2791 363.07ZM46.8764 366.337C51.6225 366.337 54.6547 363.305 54.6547 358.134C54.6547 353.036 51.5785 349.96 46.8764 349.96C42.1742 349.96 39.098 353.051 39.098 358.134C39.098 363.29 42.1303 366.337 46.8764 366.337ZM46.8764 363.07C44.767 363.07 43.434 361.298 43.434 358.148C43.434 355.028 44.7963 353.227 46.8764 353.227C48.9564 353.227 50.3041 355.028 50.3041 358.148C50.3041 361.298 48.9711 363.07 46.8764 363.07ZM62.0967 366.249C64.4111 366.249 66.2275 365.033 66.9893 363.305H67.0625V366H71.2813V344.862H67.0039V352.992H66.916C66.1543 351.249 64.3965 350.048 62.126 350.048C58.1856 350.048 55.6953 353.139 55.6953 358.119C55.6953 363.144 58.1709 366.249 62.0967 366.249ZM63.5469 353.476C65.6709 353.476 67.0332 355.292 67.0332 358.148C67.0332 361.02 65.6709 362.807 63.5469 362.807C61.3936 362.807 60.0752 361.034 60.0752 358.148C60.0752 355.277 61.3936 353.476 63.5469 353.476ZM79.2512 344.862V366H87.3225C93.6652 366 97.4006 362.06 97.4006 355.351C97.4006 348.642 93.6652 344.862 87.3225 344.862H79.2512ZM83.675 348.51H86.7951C90.6916 348.51 92.8889 350.941 92.8889 355.365C92.8889 359.936 90.7502 362.338 86.7951 362.338H83.675V348.51ZM105.267 363.158C103.817 363.158 102.85 362.426 102.85 361.254C102.85 360.141 103.759 359.423 105.355 359.306L108.666 359.101V360.243C108.666 361.942 107.128 363.158 105.267 363.158ZM103.861 366.249C105.824 366.249 107.772 365.268 108.651 363.598H108.739V366H112.87V355.204C112.87 352.04 110.248 349.96 106.22 349.96C102.059 349.96 99.4666 352.055 99.3055 355.102H103.217C103.422 353.944 104.432 353.153 106.029 353.153C107.64 353.153 108.666 354.003 108.666 355.468V356.508L104.711 356.742C100.8 356.977 98.6023 358.632 98.6023 361.488C98.6023 364.315 100.873 366.249 103.861 366.249ZM116.181 346.679V350.297H113.969V353.52H116.181V361.767C116.181 364.828 117.617 366.059 121.308 366.059C122.172 366.059 122.905 365.985 123.344 365.883V362.733C123.08 362.777 122.685 362.807 122.304 362.807C121.044 362.807 120.458 362.235 120.458 361.034V353.52H123.359V350.297H120.458V346.679H116.181ZM131.021 363.158C129.57 363.158 128.604 362.426 128.604 361.254C128.604 360.141 129.512 359.423 131.108 359.306L134.419 359.101V360.243C134.419 361.942 132.881 363.158 131.021 363.158ZM129.614 366.249C131.577 366.249 133.525 365.268 134.404 363.598H134.492V366H138.623V355.204C138.623 352.04 136.001 349.96 131.973 349.96C127.812 349.96 125.22 352.055 125.059 355.102H128.97C129.175 353.944 130.186 353.153 131.782 353.153C133.394 353.153 134.419 354.003 134.419 355.468V356.508L130.464 356.742C126.553 356.977 124.355 358.632 124.355 361.488C124.355 364.315 126.626 366.249 129.614 366.249Z" fill="white"/>
<path d="M845.118 347C849.63 347 852.428 344.671 852.428 340.95C852.428 338.152 850.318 336.058 847.447 335.838V335.721C849.688 335.384 851.417 333.45 851.417 331.136C851.417 327.898 848.927 325.862 844.957 325.862H835.758V347H845.118ZM840.182 329.158H843.814C845.88 329.158 847.066 330.125 847.066 331.824C847.066 333.611 845.719 334.651 843.36 334.651H840.182V329.158ZM840.182 343.704V337.566H843.888C846.495 337.566 847.916 338.621 847.916 340.599C847.916 342.62 846.539 343.704 843.99 343.704H840.182ZM860.046 344.158C858.595 344.158 857.629 343.426 857.629 342.254C857.629 341.141 858.537 340.423 860.133 340.306L863.444 340.101V341.243C863.444 342.942 861.906 344.158 860.046 344.158ZM858.639 347.249C860.602 347.249 862.55 346.268 863.429 344.598H863.517V347H867.648V336.204C867.648 333.04 865.026 330.96 860.998 330.96C856.837 330.96 854.245 333.055 854.084 336.102H857.995C858.2 334.944 859.211 334.153 860.807 334.153C862.419 334.153 863.444 335.003 863.444 336.468V337.508L859.489 337.742C855.578 337.977 853.38 339.632 853.38 342.488C853.38 345.315 855.651 347.249 858.639 347.249ZM875.647 347.249C877.961 347.249 879.778 346.033 880.539 344.305H880.612V347H884.831V325.862H880.554V333.992H880.466C879.704 332.249 877.946 331.048 875.676 331.048C871.736 331.048 869.245 334.139 869.245 339.119C869.245 344.144 871.721 347.249 875.647 347.249ZM877.097 334.476C879.221 334.476 880.583 336.292 880.583 339.148C880.583 342.02 879.221 343.807 877.097 343.807C874.944 343.807 873.625 342.034 873.625 339.148C873.625 336.277 874.944 334.476 877.097 334.476ZM845.294 364.496C839.024 364.496 835.099 368.7 835.099 375.438C835.099 382.162 839.024 386.366 845.294 386.366C851.549 386.366 855.489 382.162 855.489 375.438C855.489 368.7 851.549 364.496 845.294 364.496ZM845.294 368.188C848.751 368.188 850.963 371 850.963 375.438C850.963 379.862 848.751 382.66 845.294 382.66C841.822 382.66 839.61 379.862 839.61 375.438C839.61 371 841.837 368.188 845.294 368.188ZM866.549 370.048C864.279 370.048 862.536 371.19 861.686 373.036H861.598V370.297H857.379V391.127H861.657V383.363H861.745C862.58 385.136 864.337 386.249 866.623 386.249C870.548 386.249 872.98 383.202 872.98 378.148C872.98 373.08 870.534 370.048 866.549 370.048ZM865.114 382.807C863.019 382.807 861.642 380.99 861.642 378.148C861.642 375.336 863.019 373.476 865.114 373.476C867.253 373.476 868.6 375.307 868.6 378.148C868.6 381.005 867.253 382.807 865.114 382.807ZM875.735 366.679V370.297H873.523V373.52H875.735V381.767C875.735 384.828 877.17 386.059 880.862 386.059C881.726 386.059 882.458 385.985 882.898 385.883V382.733C882.634 382.777 882.238 382.807 881.858 382.807C880.598 382.807 880.012 382.235 880.012 381.034V373.52H882.912V370.297H880.012V366.679H875.735ZM884.729 386H889.007V370.297H884.729V386ZM886.853 368.173C888.098 368.173 889.08 367.177 889.08 365.976C889.08 364.76 888.098 363.778 886.853 363.778C885.608 363.778 884.627 364.76 884.627 365.976C884.627 367.177 885.608 368.173 886.853 368.173ZM891.263 386H895.54V376.522C895.54 374.765 896.639 373.534 898.265 373.534C899.847 373.534 900.799 374.53 900.799 376.215V386H904.915V376.464C904.915 374.721 905.985 373.534 907.611 373.534C909.266 373.534 910.174 374.53 910.174 376.347V386H914.452V375.277C914.452 372.113 912.386 370.004 909.31 370.004C907.01 370.004 905.135 371.249 904.432 373.227H904.344C903.817 371.176 902.235 370.004 899.964 370.004C897.826 370.004 896.141 371.249 895.482 373.139H895.394V370.297H891.263V386ZM916.635 386H920.912V370.297H916.635V386ZM918.759 368.173C920.004 368.173 920.985 367.177 920.985 365.976C920.985 364.76 920.004 363.778 918.759 363.778C917.514 363.778 916.532 364.76 916.532 365.976C916.532 367.177 917.514 368.173 918.759 368.173ZM922.876 386H935.839V382.719H928.31V382.646L935.664 373.007V370.297H922.993V373.563H930.698V373.651L922.876 383.568V386ZM943.809 383.158C942.359 383.158 941.392 382.426 941.392 381.254C941.392 380.141 942.3 379.423 943.897 379.306L947.207 379.101V380.243C947.207 381.942 945.669 383.158 943.809 383.158ZM942.403 386.249C944.365 386.249 946.314 385.268 947.193 383.598H947.28V386H951.411V375.204C951.411 372.04 948.789 369.96 944.761 369.96C940.601 369.96 938.008 372.055 937.847 375.102H941.758C941.963 373.944 942.974 373.153 944.571 373.153C946.182 373.153 947.207 374.003 947.207 375.468V376.508L943.252 376.742C939.341 376.977 937.144 378.632 937.144 381.488C937.144 384.315 939.414 386.249 942.403 386.249ZM954.722 366.679V370.297H952.511V373.52H954.722V381.767C954.722 384.828 956.158 386.059 959.849 386.059C960.714 386.059 961.446 385.985 961.886 385.883V382.733C961.622 382.777 961.226 382.807 960.846 382.807C959.586 382.807 959 382.235 959 381.034V373.52H961.9V370.297H959V366.679H954.722ZM963.717 386H967.995V370.297H963.717V386ZM965.841 368.173C967.086 368.173 968.068 367.177 968.068 365.976C968.068 364.76 967.086 363.778 965.841 363.778C964.596 363.778 963.615 364.76 963.615 365.976C963.615 367.177 964.596 368.173 965.841 368.173ZM977.458 386.337C982.204 386.337 985.236 383.305 985.236 378.134C985.236 373.036 982.16 369.96 977.458 369.96C972.756 369.96 969.68 373.051 969.68 378.134C969.68 383.29 972.712 386.337 977.458 386.337ZM977.458 383.07C975.349 383.07 974.016 381.298 974.016 378.148C974.016 375.028 975.378 373.227 977.458 373.227C979.538 373.227 980.886 375.028 980.886 378.148C980.886 381.298 979.553 383.07 977.458 383.07ZM986.848 386H991.126V376.991C991.126 374.955 992.341 373.549 994.26 373.549C996.179 373.549 997.146 374.721 997.146 376.771V386H1001.42V375.878C1001.42 372.201 999.461 370.004 995.974 370.004C993.557 370.004 991.902 371.146 991.067 373.095H990.979V370.297H986.848V386Z" fill="#9B9AB0"/>
<path d="M31.5682 55C36.0799 55 38.8777 52.6709 38.8777 48.9502C38.8777 46.1523 36.7684 44.0576 33.8973 43.8379V43.7207C36.1385 43.3838 37.867 41.4502 37.867 39.1357C37.867 35.8984 35.3768 33.8623 31.407 33.8623H22.2078V55H31.5682ZM26.6316 37.1582H30.2645C32.3299 37.1582 33.5164 38.125 33.5164 39.8242C33.5164 41.6113 32.1687 42.6514 29.8103 42.6514H26.6316V37.1582ZM26.6316 51.7041V45.5664H30.3377C32.9451 45.5664 34.366 46.6211 34.366 48.5986C34.366 50.6201 32.9891 51.7041 30.4402 51.7041H26.6316ZM46.4955 52.1582C45.0453 52.1582 44.0785 51.4258 44.0785 50.2539C44.0785 49.1406 44.9867 48.4229 46.5834 48.3057L49.8939 48.1006V49.2432C49.8939 50.9424 48.3559 52.1582 46.4955 52.1582ZM45.0893 55.249C47.0521 55.249 49.0004 54.2676 49.8793 52.5977H49.9672V55H54.098V44.2041C54.098 41.04 51.476 38.96 47.4477 38.96C43.2875 38.96 40.6947 41.0547 40.5336 44.1016H44.4447C44.6498 42.9443 45.6605 42.1533 47.2572 42.1533C48.8686 42.1533 49.8939 43.0029 49.8939 44.4678V45.5078L45.9389 45.7422C42.0277 45.9766 39.8305 47.6318 39.8305 50.4883C39.8305 53.3154 42.101 55.249 45.0893 55.249ZM62.0967 55.249C64.4111 55.249 66.2275 54.0332 66.9893 52.3047H67.0625V55H71.2812V33.8623H67.0039V41.9922H66.916C66.1543 40.249 64.3965 39.0479 62.126 39.0479C58.1855 39.0479 55.6953 42.1387 55.6953 47.1191C55.6953 52.1436 58.1709 55.249 62.0967 55.249ZM63.5469 42.4756C65.6709 42.4756 67.0332 44.292 67.0332 47.1484C67.0332 50.0195 65.6709 51.8066 63.5469 51.8066C61.3936 51.8066 60.0752 50.0342 60.0752 47.1484C60.0752 44.2773 61.3936 42.4756 63.5469 42.4756ZM79.2512 33.8623V55H87.3225C93.6652 55 97.4006 51.0596 97.4006 44.3506C97.4006 37.6416 93.6652 33.8623 87.3225 33.8623H79.2512ZM83.675 37.5098H86.7951C90.6916 37.5098 92.8889 39.9414 92.8889 44.3652C92.8889 48.9355 90.7502 51.3379 86.7951 51.3379H83.675V37.5098ZM105.267 52.1582C103.817 52.1582 102.85 51.4258 102.85 50.2539C102.85 49.1406 103.759 48.4229 105.355 48.3057L108.666 48.1006V49.2432C108.666 50.9424 107.128 52.1582 105.267 52.1582ZM103.861 55.249C105.824 55.249 107.772 54.2676 108.651 52.5977H108.739V55H112.87V44.2041C112.87 41.04 110.248 38.96 106.22 38.96C102.059 38.96 99.4666 41.0547 99.3055 44.1016H103.217C103.422 42.9443 104.432 42.1533 106.029 42.1533C107.64 42.1533 108.666 43.0029 108.666 44.4678V45.5078L104.711 45.7422C100.8 45.9766 98.6023 47.6318 98.6023 50.4883C98.6023 53.3154 100.873 55.249 103.861 55.249ZM116.181 35.6787V39.2969H113.969V42.5195H116.181V50.7666C116.181 53.8281 117.617 55.0586 121.308 55.0586C122.172 55.0586 122.905 54.9854 123.344 54.8828V51.7334C123.08 51.7773 122.685 51.8066 122.304 51.8066C121.044 51.8066 120.458 51.2354 120.458 50.0342V42.5195H123.359V39.2969H120.458V35.6787H116.181ZM131.021 52.1582C129.57 52.1582 128.604 51.4258 128.604 50.2539C128.604 49.1406 129.512 48.4229 131.108 48.3057L134.419 48.1006V49.2432C134.419 50.9424 132.881 52.1582 131.021 52.1582ZM129.614 55.249C131.577 55.249 133.525 54.2676 134.404 52.5977H134.492V55H138.623V44.2041C138.623 41.04 136.001 38.96 131.973 38.96C127.812 38.96 125.22 41.0547 125.059 44.1016H128.97C129.175 42.9443 130.186 42.1533 131.782 42.1533C133.394 42.1533 134.419 43.0029 134.419 44.4678V45.5078L130.464 45.7422C126.553 45.9766 124.355 47.6318 124.355 50.4883C124.355 53.3154 126.626 55.249 129.614 55.249Z" fill="#9B9AB0"/>
<path d="M849.762 26.3379H840.182V21.0059H849.22V17.6074H840.182V12.5098H849.762V8.8623H835.758V30H849.762V26.3379ZM852.355 8.8623V30H856.779V23.335H860.734C865.187 23.335 868.278 20.4346 868.278 16.0986C868.278 11.748 865.29 8.8623 860.954 8.8623H852.355ZM856.779 12.3633H859.782C862.316 12.3633 863.781 13.7109 863.781 16.1133C863.781 18.5303 862.301 19.8779 859.767 19.8779H856.779V12.3633ZM874.724 30V8.8623H870.3V30H874.724ZM886.985 30.3662C892.171 30.3662 895.789 27.3779 896.287 22.6611H891.98C891.512 25.166 889.622 26.7041 887 26.7041C883.616 26.7041 881.492 23.9209 881.492 19.4092C881.492 14.9561 883.645 12.1582 886.985 12.1582C889.563 12.1582 891.555 13.8574 891.966 16.4502H896.272C895.935 11.7188 892.068 8.49609 886.985 8.49609C880.862 8.49609 876.98 12.6123 876.98 19.4238C876.98 26.25 880.833 30.3662 886.985 30.3662ZM917.616 30H922.318L914.965 8.8623H909.765L902.426 30H906.967L908.578 24.873H916.005L917.616 30ZM912.24 12.9053H912.343L915.053 21.5625H909.53L912.24 12.9053ZM928.764 30.249C931.079 30.249 932.895 29.0332 933.657 27.3047H933.73V30H937.949V8.8623H933.671V16.9922H933.584C932.822 15.249 931.064 14.0479 928.794 14.0479C924.853 14.0479 922.363 17.1387 922.363 22.1191C922.363 27.1436 924.838 30.249 928.764 30.249ZM930.214 17.4756C932.338 17.4756 933.701 19.292 933.701 22.1484C933.701 25.0195 932.338 26.8066 930.214 26.8066C928.061 26.8066 926.743 25.0342 926.743 22.1484C926.743 19.2773 928.061 17.4756 930.214 17.4756ZM845.294 47.4961C839.024 47.4961 835.099 51.7002 835.099 58.4385C835.099 65.1621 839.024 69.3662 845.294 69.3662C851.549 69.3662 855.489 65.1621 855.489 58.4385C855.489 51.7002 851.549 47.4961 845.294 47.4961ZM845.294 51.1875C848.751 51.1875 850.963 54 850.963 58.4385C850.963 62.8623 848.751 65.6602 845.294 65.6602C841.822 65.6602 839.61 62.8623 839.61 58.4385C839.61 54 841.837 51.1875 845.294 51.1875ZM866.549 53.0479C864.279 53.0479 862.536 54.1904 861.686 56.0361H861.598V53.2969H857.379V74.127H861.657V66.3633H861.745C862.58 68.1357 864.337 69.249 866.623 69.249C870.548 69.249 872.98 66.2021 872.98 61.1484C872.98 56.0801 870.534 53.0479 866.549 53.0479ZM865.114 65.8066C863.019 65.8066 861.642 63.9902 861.642 61.1484C861.642 58.3359 863.019 56.4756 865.114 56.4756C867.253 56.4756 868.6 58.3066 868.6 61.1484C868.6 64.0049 867.253 65.8066 865.114 65.8066ZM875.735 49.6787V53.2969H873.523V56.5195H875.735V64.7666C875.735 67.8281 877.17 69.0586 880.862 69.0586C881.726 69.0586 882.458 68.9854 882.898 68.8828V65.7334C882.634 65.7773 882.238 65.8066 881.858 65.8066C880.598 65.8066 880.012 65.2354 880.012 64.0342V56.5195H882.912V53.2969H880.012V49.6787H875.735ZM884.729 69H889.007V53.2969H884.729V69ZM886.853 51.1729C888.098 51.1729 889.08 50.1768 889.08 48.9756C889.08 47.7598 888.098 46.7783 886.853 46.7783C885.608 46.7783 884.627 47.7598 884.627 48.9756C884.627 50.1768 885.608 51.1729 886.853 51.1729ZM891.263 69H895.54V59.5225C895.54 57.7646 896.639 56.5342 898.265 56.5342C899.847 56.5342 900.799 57.5303 900.799 59.2148V69H904.915V59.4639C904.915 57.7207 905.985 56.5342 907.611 56.5342C909.266 56.5342 910.174 57.5303 910.174 59.3467V69H914.452V58.2773C914.452 55.1133 912.386 53.0039 909.31 53.0039C907.01 53.0039 905.135 54.249 904.432 56.2266H904.344C903.817 54.1758 902.235 53.0039 899.964 53.0039C897.826 53.0039 896.141 54.249 895.482 56.1387H895.394V53.2969H891.263V69ZM916.635 69H920.912V53.2969H916.635V69ZM918.759 51.1729C920.004 51.1729 920.985 50.1768 920.985 48.9756C920.985 47.7598 920.004 46.7783 918.759 46.7783C917.514 46.7783 916.532 47.7598 916.532 48.9756C916.532 50.1768 917.514 51.1729 918.759 51.1729ZM922.876 69H935.839V65.7188H928.31V65.6455L935.664 56.0068V53.2969H922.993V56.5635H930.698V56.6514L922.876 66.5684V69ZM943.809 66.1582C942.359 66.1582 941.392 65.4258 941.392 64.2539C941.392 63.1406 942.3 62.4229 943.897 62.3057L947.207 62.1006V63.2432C947.207 64.9424 945.669 66.1582 943.809 66.1582ZM942.403 69.249C944.365 69.249 946.314 68.2676 947.193 66.5977H947.28V69H951.411V58.2041C951.411 55.04 948.789 52.96 944.761 52.96C940.601 52.96 938.008 55.0547 937.847 58.1016H941.758C941.963 56.9443 942.974 56.1533 944.571 56.1533C946.182 56.1533 947.207 57.0029 947.207 58.4678V59.5078L943.252 59.7422C939.341 59.9766 937.144 61.6318 937.144 64.4883C937.144 67.3154 939.414 69.249 942.403 69.249ZM954.722 49.6787V53.2969H952.511V56.5195H954.722V64.7666C954.722 67.8281 956.158 69.0586 959.849 69.0586C960.714 69.0586 961.446 68.9854 961.886 68.8828V65.7334C961.622 65.7773 961.226 65.8066 960.846 65.8066C959.586 65.8066 959 65.2354 959 64.0342V56.5195H961.9V53.2969H959V49.6787H954.722ZM963.717 69H967.995V53.2969H963.717V69ZM965.841 51.1729C967.086 51.1729 968.068 50.1768 968.068 48.9756C968.068 47.7598 967.086 46.7783 965.841 46.7783C964.596 46.7783 963.615 47.7598 963.615 48.9756C963.615 50.1768 964.596 51.1729 965.841 51.1729ZM977.458 69.3369C982.204 69.3369 985.236 66.3047 985.236 61.1338C985.236 56.0361 982.16 52.96 977.458 52.96C972.756 52.96 969.68 56.0508 969.68 61.1338C969.68 66.29 972.712 69.3369 977.458 69.3369ZM977.458 66.0703C975.349 66.0703 974.016 64.2979 974.016 61.1484C974.016 58.0283 975.378 56.2266 977.458 56.2266C979.538 56.2266 980.886 58.0283 980.886 61.1484C980.886 64.2979 979.553 66.0703 977.458 66.0703ZM986.848 69H991.126V59.9912C991.126 57.9551 992.341 56.5488 994.26 56.5488C996.179 56.5488 997.146 57.7207 997.146 59.7715V69H1001.42V58.8779C1001.42 55.2012 999.461 53.0039 995.974 53.0039C993.557 53.0039 991.902 54.1465 991.067 56.0947H990.979V53.2969H986.848V69Z" fill="white"/>
<defs>
<linearGradient id="paint0_linear" x1="200" y1="44" x2="774" y2="44" gradientUnits="userSpaceOnUse">
<stop offset="0.0164606"/>
<stop offset="0.199709" stop-color="#9B9AB0"/>
<stop offset="0.473958" stop-color="#32313D"/>
<stop offset="0.5632" stop-color="#3C3B49"/>
<stop offset="0.803526" stop-color="#9B9AB0"/>
<stop offset="0.974757"/>
</linearGradient>
<linearGradient id="paint1_linear" x1="774" y1="44" x2="200" y2="44" gradientUnits="userSpaceOnUse">
<stop/>
<stop offset="0.199861" stop-color="white"/>
<stop offset="0.349925" stop-color="#B1B1B1"/>
<stop offset="0.46986" stop-color="white"/>
<stop offset="0.61887" stop-color="white"/>
<stop offset="0.722232" stop-color="#9C9C9C"/>
<stop offset="0.818762" stop-color="white"/>
<stop offset="1"/>
</linearGradient>
</defs>
</svg>
